<svg
		xmlns="http://www.w3.org/2000/svg"
		xmlns:xlink="http://www.w3.org/1999/xlink"
		width="29px" height="40px">
	<g>
		<path d="M24.214,0.398 C24.214,0.398 20.961,3.527 17.444,4.789 C-8.602,14.133 2.383,32.341 2.741,32.401 C2.741,32.401 4.202,29.879 6.175,28.440 C18.694,19.312 21.239,8.804 21.239,8.804 C21.239,8.804 18.430,21.448 7.291,29.315 C4.831,31.052 3.166,35.328 2.461,39.601 C2.461,39.601 4.204,38.903 4.954,38.714 C5.247,36.821 5.858,35.009 6.892,33.390 C22.459,35.228 27.557,22.788 28.223,18.449 C29.794,8.204 24.214,0.398 24.214,0.398 Z"/>
	</g>
</svg>